<svg id="search" xmlns="http://www.w3.org/2000/svg" width="22.845" height="22.845" viewBox="0 0 22.845 22.845">
  <path id="Path_382" data-name="Path 382" d="M5.063,145.9l-.8,2.969-2.906.061a11.442,11.442,0,0,1-.084-10.666h0l2.588.474L5,141.314a6.817,6.817,0,0,0,.064,4.59Z" transform="translate(0 -132.099)" fill="#fbbb00"/>
  <path id="Path_383" data-name="Path 383" d="M272.6,208.176a11.418,11.418,0,0,1-4.072,11.041h0l-3.259-.166-.461-2.879a6.808,6.808,0,0,0,2.929-3.476h-6.108v-4.519H272.6Z" transform="translate(-249.954 -198.887)" fill="#518ef8"/>
  <path id="Path_384" data-name="Path 384" d="M47.72,315.933h0a11.426,11.426,0,0,1-17.212-3.495l3.7-3.03A6.793,6.793,0,0,0,44,312.887Z" transform="translate(-29.148 -295.604)" fill="#28b446"/>
  <path id="Path_385" data-name="Path 385" d="M46.06,2.63l-3.7,3.029A6.792,6.792,0,0,0,32.346,9.216L28.625,6.169h0A11.425,11.425,0,0,1,46.06,2.63Z" transform="translate(-27.347)" fill="#f14336"/>
</svg>
