<svg xmlns="http://www.w3.org/2000/svg" viewBox="0 0 940 914.43"><title>Grammar-1</title><g id="Layer_2" data-name="Layer 2"><path d="M67,83H767l-6,705L301,996H183S75,1012,67,937Z" transform="translate(-67 -83)" style="fill:#fff0c8;isolation:isolate"/></g><g id="Layer_3" data-name="Layer 3"><path d="M144,994s74,2,83-71l2-145,630,4V923s-4,53-71,71Z" transform="translate(-67 -83)" style="fill:#ead6a9;isolation:isolate"/></g><g id="Layer_8" data-name="Layer 8"><rect x="78.6" y="144" width="510" height="15" rx="7.5" style="fill:#e0a705"/><rect x="78.6" y="227" width="510" height="15" rx="7.5" style="fill:#e0a705"/><rect x="78.6" y="316" width="510" height="15" rx="7.5" style="fill:#e0a705"/><rect x="78.6" y="397" width="510" height="15" rx="7.5" style="fill:#e0a705"/><rect x="78.6" y="478" width="510" height="15" rx="7.5" style="fill:#e0a705"/></g><g id="Layer_4" data-name="Layer 4"><path d="M589,500s12-365,418-325c0,0-5,234-190,319,0,0-69,36-228,24Z" transform="translate(-67 -83)" style="fill:#e0a705;isolation:isolate"/></g><g id="Layer_4_copy" data-name="Layer 4 copy"><path d="M589,511s12-365,418-325c0,0-5,234-190,319,0,0-69,36-228,24Z" transform="translate(-67 -83)" style="fill:#fec400;isolation:isolate"/></g><g id="Layer_5" data-name="Layer 5"><polygon points="403.5 539.12 722.08 274.19 792 227 736.9 293.33 403.5 539.12" style="fill:#996f07"/></g><g id="Layer_5_copy" data-name="Layer 5 copy"><polygon points="404 538 720 270 792 227 735 289 404 538" style="fill:#c69302"/></g></svg>