<svg xmlns="http://www.w3.org/2000/svg" width="320.816" height="209.888" viewBox="0 0 320.816 209.888">
  <g id="Webinar-pana" transform="translate(-79.203 -116.69)">
    <g id="freepik--Device--inject-94" transform="translate(79.203 126.291)">
      <rect id="Rectangle_42" data-name="Rectangle 42" width="296.093" height="195.804" rx="14.57" transform="translate(9.716)" fill="#455a64"/>
      <path id="Path_104" data-name="Path 104" d="M122.225,419.44h320.79v5.8a11.333,11.333,0,0,1-11.333,11.333H133.533A11.333,11.333,0,0,1,122.2,425.24v-5.8Z" transform="translate(-122.2 -236.287)" fill="#455a64"/>
      <path id="Path_105" data-name="Path 105" d="M324.15,416.56l3.979,6.335h56.015l3.693-6.335Z" transform="translate(-195.573 -235.24)" fill="#263238"/>
      <path id="Path_106" data-name="Path 106" d="M431.007,416.451c0,.108-65.718.191-146.761.191s-146.786-.083-146.786-.191,65.705-.191,146.786-.191S431.007,416.343,431.007,416.451Z" transform="translate(-127.744 -235.132)" fill="#263238"/>
      <rect id="Rectangle_43" data-name="Rectangle 43" width="277.974" height="164.887" rx="3.27" transform="translate(18.196 11.256)" fill="#ebebeb"/>
      <path id="Path_107" data-name="Path 107" d="M428.284,321.613H150.31l.3-152.8H428.284Z" transform="translate(-132.413 -145.227)" fill="#fff"/>
      <path id="Path_108" data-name="Path 108" d="M184.054,158.2a2.222,2.222,0,1,1-2.222-2.2,2.222,2.222,0,0,1,2.222,2.2Z" transform="translate(-143.058 -140.573)" fill="#263238"/>
      <path id="Path_109" data-name="Path 109" d="M162.924,158.2a2.222,2.222,0,1,1-2.2-2.2,2.222,2.222,0,0,1,2.2,2.2Z" transform="translate(-135.381 -140.573)" fill="#263238"/>
      <path id="Path_110" data-name="Path 110" d="M173.064,158.192a2.216,2.216,0,1,1-.649-1.573A2.222,2.222,0,0,1,173.064,158.192Z" transform="translate(-139.065 -140.562)" fill="#263238"/>
      <rect id="Rectangle_44" data-name="Rectangle 44" width="278.273" height="14.758" transform="translate(17.897 161.627)" fill="#263238"/>
      <path id="Path_111" data-name="Path 111" d="M165.5,398.424v.471h-2.216v-.369l1.191-1.133a.831.831,0,0,0,.344-.637c0-.274-.191-.433-.56-.433a.84.84,0,0,0-.7.312l-.395-.3a1.4,1.4,0,0,1,1.146-.5c.637,0,1.076.325,1.076.86a1.2,1.2,0,0,1-.5.949l-.8.764Z" transform="translate(-137.082 -227.711)" fill="#fff"/>
      <path id="Path_112" data-name="Path 112" d="M167.3,397.357a.357.357,0,1,1,.35.357.344.344,0,0,1-.35-.357Zm0,1.636a.357.357,0,1,1,.161.348A.357.357,0,0,1,167.3,398.993Z" transform="translate(-138.584 -228.134)" fill="#fff"/>
      <path id="Path_113" data-name="Path 113" d="M169.921,395.913v3.005h-.554v-2.547h-.637V395.9Z" transform="translate(-139.105 -227.734)" fill="#fff"/>
      <path id="Path_114" data-name="Path 114" d="M174.195,398.273h-.535v.681h-.541v-.681H171.47v-.363l1.483-1.91h.6l-1.4,1.853h.987v-.6h.522v.6h.535Z" transform="translate(-140.101 -227.771)" fill="#fff"/>
      <rect id="Rectangle_45" data-name="Rectangle 45" width="228.083" height="1.038" transform="translate(39.003 169.299)" fill="#fff"/>
      <rect id="Rectangle_46" data-name="Rectangle 46" width="71.276" height="2.776" transform="translate(38.831 168.185)" fill="#8e2835"/>
      <path id="Path_115" data-name="Path 115" d="M294.8,396.52a3.47,3.47,0,1,1-3.47-3.47A3.47,3.47,0,0,1,294.8,396.52Z" transform="translate(-182.388 -226.699)" fill="#8e2835"/>
      <path id="Path_116" data-name="Path 116" d="M549.362,397.247a1,1,0,0,1-1.1.987c-.821,0-1.273-.528-1.273-1.5a1.426,1.426,0,0,1,1.477-1.6,1.528,1.528,0,0,1,.789.2l-.21.42a.994.994,0,0,0-.567-.146c-.567,0-.923.35-.923,1.031h0a1.019,1.019,0,0,1,.8-.312.936.936,0,0,1,1,.917Zm-.541,0c0-.312-.236-.509-.6-.509a.548.548,0,0,0-.637.516c0,.28.223.5.637.5a.516.516,0,0,0,.6-.484Z" transform="translate(-276.533 -227.457)" fill="#fff"/>
      <path id="Path_117" data-name="Path 117" d="M551.148,396.6a.357.357,0,1,1,.161.348A.357.357,0,0,1,551.148,396.6Zm0,1.636a.357.357,0,1,1,.161.348.357.357,0,0,1-.161-.348Z" transform="translate(-278.045 -227.841)" fill="#fff"/>
      <path id="Path_118" data-name="Path 118" d="M552.82,396.667c0-.987.541-1.547,1.273-1.547s1.273.56,1.273,1.547-.541,1.547-1.273,1.547S552.82,397.654,552.82,396.667Zm1.948,0c0-.726-.28-1.057-.694-1.057s-.694.331-.694,1.057.286,1.063.694,1.063S554.768,397.393,554.768,396.667Z" transform="translate(-278.654 -227.451)" fill="#fff"/>
      <path id="Path_119" data-name="Path 119" d="M557.35,396.667c0-.987.541-1.547,1.273-1.547s1.273.56,1.273,1.547-.541,1.547-1.273,1.547S557.35,397.654,557.35,396.667Zm1.955,0c0-.726-.286-1.057-.7-1.057s-.688.331-.688,1.057.28,1.063.688,1.063S559.3,397.393,559.3,396.667Z" transform="translate(-280.3 -227.451)" fill="#fff"/>
      <path id="Path_120" data-name="Path 120" d="M568.334,395.549H567.29v-3h3v1.038h-1.955Z" transform="translate(-283.911 -226.517)" fill="#fff"/>
      <path id="Path_121" data-name="Path 121" d="M570.289,401.692h-3V398.7h1.038v1.955h1.961Z" transform="translate(-283.911 -228.752)" fill="#fff"/>
      <path id="Path_122" data-name="Path 122" d="M577.792,401.689H574.8v-1.038h1.948V398.69h1.044Z" transform="translate(-286.639 -228.748)" fill="#fff"/>
      <path id="Path_123" data-name="Path 123" d="M577.789,395.542h-1.038v-1.955H574.79V392.55h3Z" transform="translate(-286.636 -226.517)" fill="#fff"/>
      <path id="Path_124" data-name="Path 124" d="M196.166,183.08H179.778l-8.188,14.192,8.188,14.185h16.388l8.188-14.185Z" transform="translate(-140.144 -150.412)" fill="#ebebeb"/>
      <path id="Path_125" data-name="Path 125" d="M185,200.749a14.463,14.463,0,0,1-2-2.585,4.947,4.947,0,0,1-.681-3.145,17.466,17.466,0,0,0,.414-1.865c.064-.879-.306-1.8,0-2.617.484-1.273,2.209-1.483,3.26-2.368.815-.694,1.216-1.815,2.114-2.394a3.979,3.979,0,0,1,2.719-.369,10.027,10.027,0,0,0,2.782.242,18.742,18.742,0,0,0,1.91-.516,2.617,2.617,0,0,1,1.91.134,1.273,1.273,0,0,1,.522,1.7,2.117,2.117,0,0,1,2.731,1.483,3.184,3.184,0,0,1-1.2,3.139,7,7,0,0,1-3.247,1.324,13.488,13.488,0,0,1-9.69-1.509" transform="translate(-144.031 -151.114)" fill="#263238"/>
      <path id="Path_126" data-name="Path 126" d="M201.45,205.723c-.108-2.031-.675-6.195-1.235-9.958a7.857,7.857,0,0,0-8.277-6.685h-.407c-4.355.548-6.322,4.552-5.654,8.913l1.273,15.63h10.632s-.255-2.744-.255-2.77S201.679,209.925,201.45,205.723Z" transform="translate(-145.289 -152.586)" fill="#ffbe9d"/>
      <path id="Path_127" data-name="Path 127" d="M201.054,222.531a9.85,9.85,0,0,1-5.584-1.191s1.5,2.935,5.666,2.279Z" transform="translate(-148.821 -164.313)" fill="#eb996e"/>
      <path id="Path_128" data-name="Path 128" d="M205.671,204.964a.592.592,0,0,1-.535.637.567.567,0,0,1-.637-.5.6.6,0,0,1,.535-.637.567.567,0,0,1,.637.5Z" transform="translate(-152.101 -158.181)" fill="#263238"/>
      <path id="Path_129" data-name="Path 129" d="M205.9,202.592c-.07.083-.548-.223-1.2-.178s-1.1.4-1.171.325,0-.178.229-.344a1.668,1.668,0,0,1,.93-.357,1.566,1.566,0,0,1,.955.242C205.858,202.42,205.934,202.553,205.9,202.592Z" transform="translate(-151.74 -157.298)" fill="#263238"/>
      <path id="Path_130" data-name="Path 130" d="M196.091,205.651a.637.637,0,0,1-.535.637.579.579,0,0,1-.637-.5.637.637,0,0,1,.535-.637A.579.579,0,0,1,196.091,205.651Z" transform="translate(-148.621 -158.429)" fill="#263238"/>
      <path id="Path_131" data-name="Path 131" d="M195.942,203.447c-.07.083-.548-.223-1.2-.178s-1.1.395-1.171.325,0-.178.229-.344a1.655,1.655,0,0,1,1.91-.121C195.9,203.269,195.974,203.409,195.942,203.447Z" transform="translate(-148.121 -157.607)" fill="#263238"/>
      <path id="Path_132" data-name="Path 132" d="M201.116,207.959a4.22,4.22,0,0,1,1.038-.261c.166,0,.318-.07.337-.185a.84.84,0,0,0-.14-.478l-.573-1.222a22.066,22.066,0,0,1-1.318-3.183,21.45,21.45,0,0,1,1.573,3.1c.191.427.376.84.554,1.229a1.012,1.012,0,0,1,.127.637.433.433,0,0,1-.255.261,1.273,1.273,0,0,1-.28.057A4.177,4.177,0,0,1,201.116,207.959Z" transform="translate(-150.634 -157.515)" fill="#263238"/>
      <path id="Path_133" data-name="Path 133" d="M195.615,199.537c-.051.178-.7.14-1.452.286s-1.35.388-1.464.236.051-.242.286-.433a2.464,2.464,0,0,1,1.063-.452,2.387,2.387,0,0,1,1.152.057C195.487,199.327,195.64,199.454,195.615,199.537Z" transform="translate(-147.8 -156.243)" fill="#263238"/>
      <path id="Path_134" data-name="Path 134" d="M205.424,199.647c-.108.153-.56.032-1.1.057s-.98.166-1.1,0,0-.223.2-.376a1.5,1.5,0,0,1,.872-.3,1.547,1.547,0,0,1,.891.236C205.392,199.424,205.469,199.57,205.424,199.647Z" transform="translate(-151.625 -156.206)" fill="#263238"/>
      <path id="Path_135" data-name="Path 135" d="M185.27,207.965c-.076,0-2.948-.637-2.661,2.209s3.393,1.91,3.387,1.846S185.27,207.965,185.27,207.965Z" transform="translate(-144.14 -159.431)" fill="#ffbe9d"/>
      <path id="Path_136" data-name="Path 136" d="M185.136,211.583a.9.9,0,0,1-.121.083.5.5,0,0,1-.376.045,1.235,1.235,0,0,1-.681-1.051,1.592,1.592,0,0,1,.07-.726.573.573,0,0,1,.337-.427.261.261,0,0,1,.306.108c.051.076.038.14.051.14s.057-.051,0-.172a.325.325,0,0,0-.127-.166.363.363,0,0,0-.286-.045.719.719,0,0,0-.478.5,1.707,1.707,0,0,0-.089.815,1.273,1.273,0,0,0,.847,1.165.547.547,0,0,0,.452-.121C185.174,211.678,185.174,211.583,185.136,211.583Z" transform="translate(-144.554 -159.961)" fill="#eb996e"/>
      <path id="Path_137" data-name="Path 137" d="M199.73,191.425c-.2,1.14-2.515,2.19-4.457,2.133-1.77-.051-2.649-.93-3.928-1.553a2.15,2.15,0,0,0-1.91-.216c-.891.146-1.356,1.2-1.853,1.955.955,2.082.567,4.5.159,6.755a1.121,1.121,0,0,1-.286.681.917.917,0,0,1-1.165-.172,3.578,3.578,0,0,1-.9-1.821,11.9,11.9,0,0,1-.28-4.667,8.041,8.041,0,0,1,1.91-4.208,7.64,7.64,0,0,1,5.214-2.375,9.391,9.391,0,0,1,5.558,1.573,5.6,5.6,0,0,1,1.91,1.91" transform="translate(-145.014 -152.174)" fill="#263238"/>
      <path id="Path_138" data-name="Path 138" d="M200.849,212.895l-1.464-.681a.49.49,0,0,0-.267-.064.4.4,0,0,0-.248.172,1.35,1.35,0,0,0-.166,1.49,1.14,1.14,0,0,0,1.375.5,1.56,1.56,0,0,0,.809-1.375Z" transform="translate(-149.94 -160.973)" fill="#eb996e"/>
      <path id="Path_139" data-name="Path 139" d="M199.97,214.28a.994.994,0,0,1-.86.076,1.362,1.362,0,0,1-.758-.637,1.394,1.394,0,0,1-.1-1.2,1.4,1.4,0,0,1,.6-.719.407.407,0,0,1,.382,0c.337.185.56.344.783.484.427.286.681.484.637.522s-.318-.083-.777-.318l-.783-.407h-.115a1.2,1.2,0,0,0-.178.146,1.107,1.107,0,0,0-.267.42,1.146,1.146,0,0,0,.051.93,1.191,1.191,0,0,0,.573.541A3.5,3.5,0,0,0,199.97,214.28Z" transform="translate(-149.8 -160.83)" fill="#263238"/>
      <path id="Path_140" data-name="Path 140" d="M196.766,203.573a2.487,2.487,0,0,0-.153-.713,2.993,2.993,0,0,0-1.1-1.573,2.852,2.852,0,1,0,0,4.578,2.992,2.992,0,0,0,1.1-1.573c.127-.452.121-.719.153-.719s0,.07,0,.2a2.236,2.236,0,0,1-.057.554,2.954,2.954,0,0,1-1.076,1.725,3.132,3.132,0,1,1,0-4.947,2.954,2.954,0,0,1,1.076,1.725,2.21,2.21,0,0,1,.057.554C196.786,203.51,196.779,203.573,196.766,203.573Z" transform="translate(-147.048 -156.72)" fill="#263238"/>
      <path id="Path_141" data-name="Path 141" d="M208.086,203.179a5.478,5.478,0,0,0-.153-.694,2.9,2.9,0,0,0-1.07-1.528,2.776,2.776,0,1,0,0,4.457,2.9,2.9,0,0,0,1.07-1.528c.127-.439.121-.7.153-.7s0,.064,0,.191a2.408,2.408,0,0,1-.051.541,2.9,2.9,0,0,1-1.051,1.681,3.056,3.056,0,1,1,0-4.826,2.916,2.916,0,0,1,1.051,1.687,2.351,2.351,0,0,1,.051.541C208.1,203.115,208.1,203.179,208.086,203.179Z" transform="translate(-151.217 -156.606)" fill="#263238"/>
      <path id="Path_142" data-name="Path 142" d="M201.518,203.635c-.064.057-.35-.127-.732-.115s-.637.2-.726.14.178-.458.719-.471S201.6,203.585,201.518,203.635Z" transform="translate(-150.482 -157.718)" fill="#263238"/>
      <path id="Path_143" data-name="Path 143" d="M189.638,204.7c.057.07-.5.579-1.242,1.133a4.272,4.272,0,0,1-1.439.866c-.057-.07.5-.579,1.242-1.133A4.208,4.208,0,0,1,189.638,204.7Z" transform="translate(-145.726 -158.267)" fill="#263238"/>
      <path id="Path_144" data-name="Path 144" d="M265.224,205.046c0,.089-7.366.166-16.452.166s-16.452-.076-16.452-.166,7.366-.166,16.452-.166S265.224,204.956,265.224,205.046Z" transform="translate(-162.209 -158.332)" fill="#263238"/>
      <path id="Path_145" data-name="Path 145" d="M250.12,210.452c0,.089-3.909.166-8.735.166s-8.735-.076-8.735-.166,3.909-.172,8.735-.172S250.12,210.356,250.12,210.452Z" transform="translate(-162.329 -160.294)" fill="#263238"/>
    </g>
    <g id="freepik--Character--inject-94" transform="translate(155.216 116.69)">
      <path id="Path_146" data-name="Path 146" d="M434.347,245.09a25.072,25.072,0,0,1,11.817,15.28c3.075,11,12.479,39.652,12.479,39.652s5.374,6.322,5.947,11-.573,16.006-2.3,18.12a4.858,4.858,0,0,1-4.189,1.764l-22.621-2.146-8.913-59.644Z" transform="translate(-308.793 -163.34)" fill="#8e2835"/>
      <path id="Path_147" data-name="Path 147" d="M309.778,238.9S293.6,244,289.57,248.39L302.813,310l-.236,19.444h76.707c0-.961.688-64.546.688-64.546l4.6-24.951-27.243-4.794-5.374-4.228-30.325,1.541-4.61,4.6Z" transform="translate(-259.021 -158.192)" fill="#8e2835"/>
      <g id="Group_12" data-name="Group 12" transform="translate(43.664 132.936)" opacity="0.3">
        <path id="Path_148" data-name="Path 148" d="M323.432,326.711c-.236-.522-.579-1.089-1.14-1.2-.923-.191-1.541.9-1.853,1.789a81.217,81.217,0,0,1-10.072,19.667l-.2,9.461c4.457-3.763,8.875-7.793,11.728-12.893S325.813,332.033,323.432,326.711Z" transform="translate(-310.17 -325.485)"/>
      </g>
      <path id="Path_149" data-name="Path 149" d="M272.137,258.36s-5.329,7.265-7.538,12.008-20.552,44.567-21.647,48.687-3.947,17.069,4.425,20.074h17.235L281.9,304.156l.885-40.588Z" transform="translate(-241.589 -168.162)" fill="#8e2835"/>
      <path id="Path_150" data-name="Path 150" d="M267.478,343.944a7.622,7.622,0,0,0-1.178-.789,13.371,13.371,0,0,0-3.616-1.312,17.409,17.409,0,0,0-2.636-.369,10.5,10.5,0,0,0-3.05.216,11.25,11.25,0,0,0-5.8,3.642,15.816,15.816,0,0,0-3.285,6.106,30.467,30.467,0,0,0-1.031,5.635c-.166,1.63-.223,2.961-.28,3.871,0,.433-.051.783-.064,1.057a1.338,1.338,0,0,1-.051.369,2.777,2.777,0,0,1,0-.369c0-.28,0-.637,0-1.057,0-.923.038-2.247.172-3.89a29.394,29.394,0,0,1,.974-5.73,15.841,15.841,0,0,1,3.33-6.239,11.46,11.46,0,0,1,5.985-3.718,10.409,10.409,0,0,1,3.107-.172,16.758,16.758,0,0,1,2.668.414,12.575,12.575,0,0,1,3.629,1.426,6.371,6.371,0,0,1,.859.637A1.8,1.8,0,0,1,267.478,343.944Z" transform="translate(-243.366 -198.24)" fill="#263238"/>
      <path id="Path_151" data-name="Path 151" d="M266.63,334.531a2.238,2.238,0,0,1,.579-.089,10.293,10.293,0,0,1,1.6,0,13.306,13.306,0,0,1,2.349.35,14.007,14.007,0,0,1,5.227,2.5,13.027,13.027,0,0,1,1.751,1.6,10.292,10.292,0,0,1,.987,1.273,2.176,2.176,0,0,1,.293.509c-.051.038-.522-.637-1.452-1.6a15.629,15.629,0,0,0-1.764-1.522,15.918,15.918,0,0,0-2.445-1.464,16.782,16.782,0,0,0-2.674-.98,15.285,15.285,0,0,0-2.292-.407C267.464,334.525,266.63,334.6,266.63,334.531Z" transform="translate(-250.687 -195.793)" fill="#263238"/>
      <path id="Path_152" data-name="Path 152" d="M279.762,331.209a3.557,3.557,0,0,1-.8-.057c-.509-.064-1.242-.14-2.158-.21a36.876,36.876,0,0,0-14.09,1.687c-.872.28-1.573.528-2.05.713a4.016,4.016,0,0,1-.758.248,3.185,3.185,0,0,1,.707-.369c.465-.223,1.159-.5,2.025-.815a32.523,32.523,0,0,1,14.192-1.694c.91.1,1.649.2,2.152.312A4.18,4.18,0,0,1,279.762,331.209Z" transform="translate(-248.245 -194.386)" fill="#263238"/>
      <path id="Path_153" data-name="Path 153" d="M355.282,264.483a.9.9,0,0,1-.178-.21l-.471-.637-1.732-2.394c-1.483-2.1-3.559-5.03-6-8.468l.267-.038c-.93,2.725-1.955,5.73-3.031,8.913l-.07.2-.178-.115-.357-.229a18.346,18.346,0,0,1-3.75-3.183,22.319,22.319,0,0,1-2.68-3.705,31.244,31.244,0,0,1-2.948-7.112,49.665,49.665,0,0,1-1.114-5.093c-.1-.573-.178-1.038-.242-1.388a2.21,2.21,0,0,0-.083-.35.3.3,0,0,0-.038-.121,9.674,9.674,0,0,1,.49,1.84,50.273,50.273,0,0,0,1.216,5.03,31.447,31.447,0,0,0,2.986,7.042,22.731,22.731,0,0,0,2.655,3.642,18.064,18.064,0,0,0,3.68,3.107l.35.229-.242.089c1.089-3.183,2.12-6.169,3.062-8.913l.1-.28.172.242c2.394,3.47,4.457,6.424,5.9,8.538.694,1.031,1.273,1.853,1.662,2.451l.427.637a1.5,1.5,0,0,1,.146.28Z" transform="translate(-274.684 -161.691)" fill="#263238"/>
      <g id="Group_13" data-name="Group 13" transform="translate(100.399 132.2)" opacity="0.3">
        <path id="Path_154" data-name="Path 154" d="M399.44,324.33A34.9,34.9,0,0,0,403.9,345c3.565,6.2,8.8,11.734,15.312,14.7.21-6.322-.1-13.771.115-20.094Z" transform="translate(-399.281 -324.33)"/>
      </g>
      <path id="Path_155" data-name="Path 155" d="M397.558,302.66s-2.789.77-.7,6.481,2.789,5.361,4.183,10.7,3.018,10.187,5.45,13.23,11.492,9.168,11.492,9.168l8.124-7.64s-1.337-5.73-1.019-9.588,1.133-13.37,1.019-15.019-1.859-5.571-1.859-5.571v-2.7L420.07,288.87s-2.324-1.044-3.132,2.668l-1.394-3.941s-2.2-.35-2.782,4.177a45.545,45.545,0,0,0,.465,10.792l-1.165,7.888-1.738,5.342-1.509.229s-2.273-.637-3.514-4.9S400.69,301.731,397.558,302.66Z" transform="translate(-297.719 -178.782)" fill="#ffbe9d"/>
      <path id="Path_156" data-name="Path 156" d="M433.837,333.762a1.651,1.651,0,0,0-.038-.287,8.038,8.038,0,0,1-.057-.853c-.045-.777-.1-1.853-.172-3.183-.127-2.77-.3-6.628-.5-11.129l.032.1a1.636,1.636,0,0,0-1.643-.433,2.413,2.413,0,0,0-1.5,1.108,10.763,10.763,0,0,0-.974,4.062c-.439,3.253-.86,6.367-1.242,9.175-.191,1.413-.395,2.75-.669,3.992a25.234,25.234,0,0,1-1.012,3.387,27.324,27.324,0,0,0-.872,2.757,8.577,8.577,0,0,0-.261,2.133,6.78,6.78,0,0,0,.318,1.821,2.815,2.815,0,0,1-.191-.446,4.794,4.794,0,0,1-.255-1.369,8.117,8.117,0,0,1,.21-2.2,24.82,24.82,0,0,1,.834-2.789,26,26,0,0,0,.955-3.368c.261-1.229.458-2.547.637-3.973.369-2.827.783-5.921,1.216-9.181.1-.719.178-1.439.306-2.152a5.672,5.672,0,0,1,.713-2.044,2.738,2.738,0,0,1,1.713-1.235,1.91,1.91,0,0,1,1.955.535l.032.045v.051c.159,4.5.293,8.36.388,11.135,0,1.343.057,2.419.083,3.183v.853A1.441,1.441,0,0,1,433.837,333.762Z" transform="translate(-308.15 -189.675)" fill="#eb996e"/>
      <path id="Path_157" data-name="Path 157" d="M431.044,313.7a3.184,3.184,0,0,1-.344-.726,19.36,19.36,0,0,1-.681-2.076,21.416,21.416,0,0,1-.579-3.183,9.255,9.255,0,0,1-.038-1.91,4.157,4.157,0,0,1,.7-1.986,2.853,2.853,0,0,1,1.49-1.121l.121-.032.064.108c1.178,2.076,2.2,3.909,2.916,5.227l.834,1.56a2.478,2.478,0,0,1,.267.586,2.893,2.893,0,0,1-.369-.529l-.917-1.509c-.764-1.273-1.827-3.1-3.012-5.17l.185.076a2.547,2.547,0,0,0-1.305.993,3.82,3.82,0,0,0-.637,1.834,9.173,9.173,0,0,0,0,1.872,23.906,23.906,0,0,0,.5,3.183c.2.891.427,1.6.573,2.095a3.744,3.744,0,0,1,.229.707Z" transform="translate(-309.814 -184.26)" fill="#eb996e"/>
      <path id="Path_158" data-name="Path 158" d="M428.739,310.922a2.977,2.977,0,0,1-.076-.745c0-.547-.051-1.222-.083-2.018-.051-1.706-.108-4.062-.14-6.666a57.686,57.686,0,0,1,.1-6.679,10.5,10.5,0,0,1,.433-1.986,2.317,2.317,0,0,1,.3-.688,18.651,18.651,0,0,0-.5,2.7c-.159,1.687,0,4.043,0,6.647s.051,4.96.045,6.666v2.025A3.418,3.418,0,0,1,428.739,310.922Z" transform="translate(-309.457 -180.435)" fill="#eb996e"/>
      <path id="Path_159" data-name="Path 159" d="M418.148,347.747c-.045-.038.465-.637,1.089-1.725a14.5,14.5,0,0,0,.949-1.98,16.33,16.33,0,0,0,.726-2.585,16.049,16.049,0,0,0,.223-2.674,14.825,14.825,0,0,0-.191-2.184c-.21-1.241-.477-1.98-.42-2a1.911,1.911,0,0,1,.229.5,9.182,9.182,0,0,1,.42,1.452,12.416,12.416,0,0,1,.267,2.222,13.148,13.148,0,0,1-.974,5.38,12.436,12.436,0,0,1-1.025,1.986,9.133,9.133,0,0,1-.9,1.21C418.308,347.62,418.168,347.76,418.148,347.747Z" transform="translate(-305.736 -195.861)" fill="#eb996e"/>
      <path id="Path_160" data-name="Path 160" d="M436.891,349l7.048,2.445s6.736-3.483,11.377,0,8.672,12.657,7.4,16.369c0,0-3.183,3.96-5.641,4.54s-11.912-1.719-15.853-2.547-10.741-5.246-10.741-5.246Z" transform="translate(-310.217 -201.093)" fill="#ffbe9d"/>
      <path id="Path_161" data-name="Path 161" d="M441.691,356.192a2.823,2.823,0,0,1-.076-.637c0-.478-.057-1.044-.1-1.706-.076-1.439-.172-3.425-.2-5.628s.032-4.2.159-5.635c.064-.719.146-1.273.216-1.7a2.12,2.12,0,0,1,.146-.637c.051,0-.057.891-.127,2.33s-.1,3.419-.064,5.616.076,4.094.1,5.622v1.706a2.089,2.089,0,0,1-.057.669Z" transform="translate(-314.151 -197.914)" fill="#eb996e"/>
      <path id="Path_162" data-name="Path 162" d="M467.477,349.513a22.469,22.469,0,0,0-2.343-2.114,12.906,12.906,0,0,0-14.287-.783,23.011,23.011,0,0,0-2.547,1.84,3.776,3.776,0,0,1,.579-.637,11.689,11.689,0,0,1,1.866-1.413,12.676,12.676,0,0,1,14.554.809,11.183,11.183,0,0,1,1.694,1.611A3.591,3.591,0,0,1,467.477,349.513Z" transform="translate(-316.691 -199.454)" fill="#263238"/>
      <path id="Path_163" data-name="Path 163" d="M465.345,341.628a14.073,14.073,0,0,0-2.935-1.617,12.95,12.95,0,0,0-7.933-.236,18.536,18.536,0,0,0-4.107,1.706,19.467,19.467,0,0,0-2.973,2.1c-.789.675-1.394,1.273-1.808,1.674a5.1,5.1,0,0,1-.669.637,4.389,4.389,0,0,1,.573-.713,22.029,22.029,0,0,1,1.751-1.764,18.294,18.294,0,0,1,2.973-2.184,17.637,17.637,0,0,1,4.17-1.764,12.683,12.683,0,0,1,8.111.337,9.411,9.411,0,0,1,2.171,1.222c.236.172.395.337.516.439A.7.7,0,0,1,465.345,341.628Z" transform="translate(-315.463 -197.446)" fill="#263238"/>
      <path id="Path_164" data-name="Path 164" d="M464.639,334.511c0,.064-1.273-.312-3.3-.586a25.879,25.879,0,0,0-3.61-.229,28.342,28.342,0,0,0-4.412.395,28.87,28.87,0,0,0-4.285,1.133,25.418,25.418,0,0,0-3.317,1.452c-1.827.955-2.859,1.732-2.9,1.674a4.52,4.52,0,0,1,.707-.56,8.084,8.084,0,0,1,.872-.6c.35-.223.745-.484,1.2-.726a24.441,24.441,0,0,1,3.33-1.528,26.223,26.223,0,0,1,4.329-1.171,26.781,26.781,0,0,1,4.457-.376,23.842,23.842,0,0,1,3.648.3c.516.064.974.185,1.375.267a9.868,9.868,0,0,1,1.031.267A5.258,5.258,0,0,1,464.639,334.511Z" transform="translate(-314.7 -195.422)" fill="#263238"/>
      <path id="Path_165" data-name="Path 165" d="M382.383,237.23a5.852,5.852,0,0,1,.484,1.872,18.018,18.018,0,0,1-.267,5.469,31.35,31.35,0,0,1-.91,3.82,29.013,29.013,0,0,1-1.846,4.234c-1.522,2.929-3.432,6.118-5.647,9.55l-.255.4v-7.545l.248.121-5.978,4.769.051-.076a62.548,62.548,0,0,0-2.6,14.293,166.221,166.221,0,0,0,.248,21.883c.363,6.723.522,12.791.732,17.884s.382,9.206.535,12.052c.089,1.413.153,2.508.2,3.272,0,.363.045.637.057.853a1.561,1.561,0,0,1,0,.293,1.425,1.425,0,0,0-.045-.286c-.045-.191-.051-.49-.089-.853-.07-.745-.159-1.846-.255-3.273-.191-2.84-.414-6.959-.637-12.052s-.5-11.148-.8-17.878-.859-14.147-.274-21.921A62.253,62.253,0,0,1,368,259.743V259.7h.038L374,254.917l.248-.2V262.1l-.261-.083c4.374-6.781,7.933-12.676,8.481-17.445a18.7,18.7,0,0,0,.344-5.424,9.711,9.711,0,0,0-.261-1.413A5.081,5.081,0,0,1,382.383,237.23Z" transform="translate(-286.454 -160.485)" fill="#263238"/>
      <path id="Path_166" data-name="Path 166" d="M373.248,366.22h-.2a1.789,1.789,0,1,0,.229,0Z" transform="translate(-288.741 -207.35)" fill="#fff"/>
      <path id="Path_167" data-name="Path 167" d="M373.252,327.68h-.2a1.783,1.783,0,1,0,.229,0Z" transform="translate(-288.745 -193.347)" fill="#fff"/>
      <path id="Path_168" data-name="Path 168" d="M372.975,291.155a1.8,1.8,0,1,0,.236-3.585h-.236a1.8,1.8,0,0,0,0,3.591Z" transform="translate(-288.672 -178.774)" fill="#fff"/>
      <path id="Path_169" data-name="Path 169" d="M326.023,164.683a46.157,46.157,0,0,1-6.106-7.876,14.821,14.821,0,0,1-2.063-9.55c.318-1.91,1.133-3.756,1.273-5.73.178-2.674-.942-5.469,0-7.971,1.477-3.922,6.755-4.527,9.951-7.233,2.489-2.107,3.7-5.526,6.437-7.3,2.394-1.554,5.469-1.515,8.277-1.121s5.66,1.114,8.487.732a54.435,54.435,0,0,0,5.877-1.573,7.9,7.9,0,0,1,5.927.407c1.751,1.044,2.744,3.508,1.592,5.183,3.273-1.509,7.43,1.044,8.328,4.533s-.9,7.265-3.674,9.55-6.367,3.374-9.9,4.043c-10.021,1.91-20.9.821-29.542-4.6" transform="translate(-269.243 -116.69)" fill="#263238"/>
      <path id="Path_170" data-name="Path 170" d="M365.1,202.86c-.49-3.82-.891-6.959-.917-7.354,0,0,12.683-2.852,11.982-15.675-.337-6.2-2.069-18.909-3.775-30.389a23.914,23.914,0,0,0-25.263-20.374l-1.273.076c-13.275,1.674-19.279,13.886-17.241,27.116l7.169,44.357s3.056,9.811,9.595,11.511l8.277,11.791,1.362-5.093,6.15-5.361a24.232,24.232,0,0,0,3.037-4.514A9.907,9.907,0,0,0,365.1,202.86Z" transform="translate(-273.064 -121.167)" fill="#ffbe9d"/>
      <path id="Path_171" data-name="Path 171" d="M374.995,231.1a29.886,29.886,0,0,1-17.025-3.635s4.571,8.958,17.279,6.953Z" transform="translate(-283.873 -156.935)" fill="#eb996e"/>
      <path id="Path_172" data-name="Path 172" d="M389.041,177.531A1.84,1.84,0,0,1,387.4,179.5a1.751,1.751,0,0,1-1.993-1.528,1.827,1.827,0,0,1,1.649-1.98,1.751,1.751,0,0,1,1.986,1.541Z" transform="translate(-293.838 -138.228)" fill="#263238"/>
      <path id="Path_173" data-name="Path 173" d="M389.8,170.317c-.21.255-1.668-.681-3.635-.541s-3.323,1.216-3.578,1c-.108-.1.1-.541.694-1.044a5.011,5.011,0,0,1,2.84-1.089,4.8,4.8,0,0,1,2.916.732C389.67,169.782,389.9,170.2,389.8,170.317Z" transform="translate(-292.805 -135.561)" fill="#263238"/>
      <path id="Path_174" data-name="Path 174" d="M359.822,179.627a1.827,1.827,0,0,1-1.643,1.961,1.745,1.745,0,0,1-1.993-1.522,1.84,1.84,0,0,1,1.636-1.967,1.757,1.757,0,0,1,2,1.528Z" transform="translate(-283.223 -138.994)" fill="#263238"/>
      <path id="Path_175" data-name="Path 175" d="M359.436,172.92c-.216.255-1.668-.681-3.635-.541s-3.349,1.216-3.578.987c-.115-.1.089-.541.688-1.044a5.049,5.049,0,0,1,2.846-1.089,4.794,4.794,0,0,1,2.91.732C359.3,172.385,359.538,172.806,359.436,172.92Z" transform="translate(-281.773 -136.502)" fill="#263238"/>
      <path id="Path_176" data-name="Path 176" d="M375.184,186.749a13.218,13.218,0,0,1,3.183-.8c.5-.083.968-.216,1.031-.56a2.578,2.578,0,0,0-.439-1.471l-1.744-3.731c-2.426-5.31-4.221-9.7-4-9.792s2.356,4.132,4.788,9.448l1.681,3.756a2.929,2.929,0,0,1,.395,1.955,1.273,1.273,0,0,1-.777.789,3.426,3.426,0,0,1-.847.178A13.227,13.227,0,0,1,375.184,186.749Z" transform="translate(-289.403 -136.203)" fill="#263238"/>
      <path id="Path_177" data-name="Path 177" d="M358.441,161.008c-.159.554-2.139.427-4.457.859s-4.119,1.191-4.457.732c-.153-.223.14-.745.859-1.318a7.888,7.888,0,0,1,6.768-1.21C358.053,160.359,358.511,160.753,358.441,161.008Z" transform="translate(-280.791 -132.344)" fill="#263238"/>
      <path id="Path_178" data-name="Path 178" d="M388.35,161.363c-.312.471-1.7.1-3.336.185s-2.992.5-3.343.057c-.153-.216.038-.681.637-1.146a4.852,4.852,0,0,1,5.38-.191C388.274,160.688,388.49,161.108,388.35,161.363Z" transform="translate(-292.466 -132.26)" fill="#263238"/>
      <path id="Path_179" data-name="Path 179" d="M326.857,186.527c-.223-.076-8.977-2.012-8.111,6.73s10.327,5.889,10.327,5.641S326.857,186.527,326.857,186.527Z" transform="translate(-269.6 -141.978)" fill="#ffbe9d"/>
      <path id="Path_180" data-name="Path 180" d="M326.479,197.723c-.045,0-.14.121-.388.261a1.515,1.515,0,0,1-1.133.14c-.961-.248-1.91-1.636-2.082-3.183a5.093,5.093,0,0,1,.21-2.222,1.776,1.776,0,0,1,1.031-1.273.783.783,0,0,1,.942.331c.14.236.1.414.146.42s.172-.159.07-.516a.993.993,0,0,0-.4-.516,1.184,1.184,0,0,0-.891-.178,2.152,2.152,0,0,0-1.452,1.515,5.163,5.163,0,0,0-.286,2.489c.229,1.757,1.273,3.317,2.591,3.553a1.636,1.636,0,0,0,1.375-.369C326.485,197.933,326.53,197.736,326.479,197.723Z" transform="translate(-270.877 -143.675)" fill="#eb996e"/>
      <path id="Path_181" data-name="Path 181" d="M370.962,136.258c-.6,3.483-7.64,6.672-13.51,6.5-5.393-.159-8.06-2.833-11.976-4.737-2.483-1.2-2.483-1.2-5.851-.637-2.719.439-4.132,3.655-5.66,5.947,2.91,6.367,1.732,13.727.5,20.6a3.476,3.476,0,0,1-.885,2.088c-.98.866-2.547.35-3.54-.535a10.831,10.831,0,0,1-2.757-5.558,35.96,35.96,0,0,1-.866-14.217,24.64,24.64,0,0,1,5.908-12.861,23.341,23.341,0,0,1,15.917-7.252,28.65,28.65,0,0,1,16.948,4.813,17.059,17.059,0,0,1,5.794,5.838" transform="translate(-272.282 -119.92)" fill="#263238"/>
      <path id="Path_182" data-name="Path 182" d="M374.357,201.7l-4.457-2.076a1.47,1.47,0,0,0-.809-.2,1.273,1.273,0,0,0-.77.522,4.132,4.132,0,0,0-.5,4.552,3.489,3.489,0,0,0,4.183,1.541c1.579-.637,2.343-2.489,2.47-4.2Z" transform="translate(-287.284 -146.747)" fill="#eb996e"/>
      <path id="Path_183" data-name="Path 183" d="M371.854,206.05c0,.038-.21.166-.637.261a3.859,3.859,0,0,1-1.91-.14,3.979,3.979,0,0,1-2.209-1.84,4.094,4.094,0,0,1-.274-3.514,4.26,4.26,0,0,1,1.031-1.56,4.094,4.094,0,0,1,.726-.548,1.146,1.146,0,0,1,.516-.159,1.184,1.184,0,0,1,.516.1,7.924,7.924,0,0,1,.694.395l.6.376,1.089.675a10.079,10.079,0,0,1,2.069,1.477,9.674,9.674,0,0,1-2.3-1.07l-1.127-.637-.637-.35c-.216-.108-.446-.255-.637-.331a.471.471,0,0,0-.49.051,3.468,3.468,0,0,0-.586.465,3.82,3.82,0,0,0-.866,1.324,3.591,3.591,0,0,0,.191,2.986,3.68,3.68,0,0,0,1.84,1.694,4.489,4.489,0,0,0,1.725.325C371.6,206.043,371.835,206,371.854,206.05Z" transform="translate(-286.99 -146.431)" fill="#263238"/>
      <path id="Path_184" data-name="Path 184" d="M362.154,173.474a15.557,15.557,0,0,0-.35-2.216,9.028,9.028,0,0,0-11.836-6.22,8.582,8.582,0,0,0-2.273,1.229,8.278,8.278,0,0,0-1.91,1.91,8.914,8.914,0,0,0,0,10.6,8.277,8.277,0,0,0,1.91,1.91,8.583,8.583,0,0,0,2.273,1.229A9.054,9.054,0,0,0,361.8,175.7a15.72,15.72,0,0,0,.35-2.209.49.49,0,0,1,0,.146c0,.115,0,.261,0,.433a3.7,3.7,0,0,1-.051.707,7.126,7.126,0,0,1-.172.955,8.744,8.744,0,0,1-.987,2.464A9.213,9.213,0,0,1,349.86,182.2a8.753,8.753,0,0,1-2.349-1.273,8.633,8.633,0,0,1-1.974-1.967,9.232,9.232,0,0,1,0-10.983,8.487,8.487,0,0,1,1.967-1.967,8.754,8.754,0,0,1,2.349-1.273,9.219,9.219,0,0,1,11.085,4.011,8.741,8.741,0,0,1,.987,2.464,7.117,7.117,0,0,1,.172.955,3.706,3.706,0,0,1,.051.707c0,.172,0,.318,0,.433a.555.555,0,0,1,.006.166Z" transform="translate(-278.697 -133.949)" fill="#263238"/>
      <path id="Path_185" data-name="Path 185" d="M396.668,172.265a15.721,15.721,0,0,0-.337-2.158,8.869,8.869,0,0,0-3.247-4.82,8.627,8.627,0,0,0-3.693-1.624,8.78,8.78,0,0,0-4.6.388,8.556,8.556,0,0,0-2.209,1.191,8.384,8.384,0,0,0-1.846,1.859,8.716,8.716,0,0,0,0,10.327,8.226,8.226,0,0,0,1.846,1.853,8.393,8.393,0,0,0,2.209,1.2,8.843,8.843,0,0,0,4.6.388,8.627,8.627,0,0,0,3.693-1.624,8.869,8.869,0,0,0,3.247-4.82,15.748,15.748,0,0,0,.337-2.158,3.527,3.527,0,0,1,0,.567,4.181,4.181,0,0,1-.051.694,6.885,6.885,0,0,1-.166.93,8.971,8.971,0,0,1-7,6.685,9.034,9.034,0,1,1,0-17.751,8.971,8.971,0,0,1,7,6.685,6.875,6.875,0,0,1,.166.93,4.18,4.18,0,0,1,.051.694,3.527,3.527,0,0,1,0,.567Z" transform="translate(-291.411 -133.6)" fill="#263238"/>
      <path id="Path_186" data-name="Path 186" d="M376.448,173.682c-.038.032-.248-.14-.637-.325a3.61,3.61,0,0,0-1.6-.35,3.483,3.483,0,0,0-1.585.407c-.382.2-.586.382-.637.344s.115-.28.5-.548a3.12,3.12,0,0,1,3.425-.057A1.471,1.471,0,0,1,376.448,173.682Z" transform="translate(-288.961 -137.028)" fill="#263238"/>
      <path id="Path_187" data-name="Path 187" d="M340.185,176.73a40.251,40.251,0,0,1-3.986,3.183,40.745,40.745,0,0,1-4.189,2.922A38.38,38.38,0,0,1,336,179.652a39.566,39.566,0,0,1,4.183-2.922Z" transform="translate(-274.441 -138.504)" fill="#263238"/>
      <g id="Group_14" data-name="Group 14" transform="translate(58.058 79.661)" opacity="0.3">
        <path id="Path_188" data-name="Path 188" d="M332.919,241.81c-.885,8.64,2.4,17.763,9.334,23a2.08,2.08,0,0,0,1.865.586,2.038,2.038,0,0,0,.968-.993,16.885,16.885,0,0,0,2.063-11.1c-1.1,2.891-2.037,5.73-3.145,8.748C337.974,258.376,334.193,250.583,332.919,241.81Z" transform="translate(-332.778 -241.81)"/>
      </g>
      <path id="Path_189" data-name="Path 189" d="M369.87,261.007l5.093-1.859.84,8.6s5.488-10,7.761-14.561,1.1-12.619,1.1-12.619.809,7-4.686,15.962l-4.151,6.749v-7.067Z" transform="translate(-288.196 -161.698)" opacity="0.3"/>
      <g id="Group_15" data-name="Group 15" transform="translate(4.627 141.943)" opacity="0.3">
        <path id="Path_190" data-name="Path 190" d="M266.775,340.713a13.574,13.574,0,0,0-7.366-.923,14.179,14.179,0,0,0-7.335,2.776,8.12,8.12,0,0,0-3.183,6.921l.255.032c1.776-4.8,5.3-8.277,9.856-8.716a14.82,14.82,0,0,1,12.1,4.941C270.76,343.247,269.016,341.777,266.775,340.713Z" transform="translate(-248.856 -339.633)"/>
      </g>
      <g id="Group_16" data-name="Group 16" transform="translate(132.296 144.324)" opacity="0.3">
        <path id="Path_191" data-name="Path 191" d="M468.2,346.955a11.633,11.633,0,0,0-6.571-3.381,14.733,14.733,0,0,0-12.25,3.546l.968-.79a15.464,15.464,0,0,1,8.162-2.216,11.784,11.784,0,0,1,7.774,3.107,20.553,20.553,0,0,1,4.138,6.647,8.321,8.321,0,0,0-2.222-6.914Z" transform="translate(-449.38 -343.372)"/>
      </g>
      <path id="Path_192" data-name="Path 192" d="M427.45,276.385a3.47,3.47,0,0,1,.229-.694c.2-.5.439-1.121.719-1.853.637-1.56,1.464-3.712,2.356-6.112s1.662-4.584,2.216-6.163l.637-1.878a3.321,3.321,0,0,1,.28-.675,2.642,2.642,0,0,1-.159.713c-.121.458-.312,1.108-.56,1.91-.5,1.6-1.235,3.82-2.126,6.208s-1.776,4.552-2.451,6.087c-.331.77-.637,1.388-.821,1.814A2.921,2.921,0,0,1,427.45,276.385Z" transform="translate(-309.116 -168.398)" fill="#263238"/>
      <path id="Path_193" data-name="Path 193" d="M299.785,279.519c-.089,0-.783-3.011-1.547-6.768s-1.312-6.781-1.242-6.832.777,3.012,1.541,6.768S299.874,279.5,299.785,279.519Z" transform="translate(-261.717 -170.908)" fill="#263238"/>
      <path id="Path_194" data-name="Path 194" d="M298.16,323.1c.2.1-2.33-19.839-2.33-19.839s1.6-15.134,2.5-15.834v-5.342s2.477-1.5,3.139.923c0,0,2.2-1.91,2.547,2.629s.465,9.175.465,9.175l4.883,12.211.8.407s1.051-9.55,1.662-10.976,1.031-4.832,3.343-4.317,2.509,2.426,2.095,5.545-.936,6.367-.739,8.366,1.108,6.45.828,9.977a19.9,19.9,0,0,1-4.24,9.856c-2.025,2.61-5.9,8.016-8,9.639C304.425,336.1,298.16,323.1,298.16,323.1Z" transform="translate(-261.296 -176.617)" fill="#ffbe9d"/>
      <path id="Path_195" data-name="Path 195" d="M302.073,310.327a3.819,3.819,0,0,1,0-.853c.038-.637.1-1.388.159-2.318.146-1.955.376-4.654.637-7.64.14-1.483.274-2.9.395-4.2a7.48,7.48,0,0,0,0-1.8,2.547,2.547,0,0,0-.637-1.375,2.725,2.725,0,0,0-1.993-.872,5.649,5.649,0,0,0-.834.1.774.774,0,0,1,.2-.1,2.152,2.152,0,0,1,.637-.134,2.8,2.8,0,0,1,2.171.847,2.725,2.725,0,0,1,.707,1.5,7.3,7.3,0,0,1,0,1.866c-.115,1.273-.242,2.719-.369,4.2-.274,2.98-.541,5.673-.751,7.64l-.261,2.311A4.838,4.838,0,0,1,302.073,310.327Z" transform="translate(-262.738 -180.069)" fill="#eb996e"/>
      <path id="Path_196" data-name="Path 196" d="M305.9,308.469a6.929,6.929,0,0,0-.866,1.573,26.386,26.386,0,0,0-.809,4.3c-.267,1.706-.522,3.247-.726,4.361a9.55,9.55,0,0,1-.395,1.789,10.64,10.64,0,0,1,.166-1.827c.14-1.121.363-2.668.637-4.374a19.984,19.984,0,0,1,.923-4.336,4.169,4.169,0,0,1,.694-1.152C305.729,308.552,305.882,308.457,305.9,308.469Z" transform="translate(-263.937 -186.367)" fill="#eb996e"/>
      <path id="Path_197" data-name="Path 197" d="M304.67,283.39a2.221,2.221,0,0,1,.172.637c.089.407.2,1,.318,1.738.242,1.471.509,3.514.681,5.787s.2,4.336.178,5.826c0,.745-.032,1.35-.064,1.764a2.23,2.23,0,0,1-.076.637,21.291,21.291,0,0,1-.1-2.407c-.032-1.49-.108-3.54-.274-5.8s-.395-4.3-.579-5.781A20.333,20.333,0,0,1,304.67,283.39Z" transform="translate(-264.508 -177.256)" fill="#eb996e"/>
      <path id="Path_198" data-name="Path 198" d="M325.129,312.241a1.757,1.757,0,0,1-1.643.14c-.936-.28-1.369-1-1.273-1.031a8.718,8.718,0,0,0,1.382.713A9.3,9.3,0,0,0,325.129,312.241Z" transform="translate(-270.876 -187.414)" fill="#eb996e"/>
      <path id="Path_199" data-name="Path 199" d="M282.728,342.87l-12.9,5.424h-7.691s-7.6,2.375-8.773,9.506-1.337,10.792,2.006,11.677,12.784.98,17.464-.573,16.942-11.46,16.942-11.46l1.178-7.156Z" transform="translate(-245.59 -198.866)" fill="#ffbe9d"/>
      <path id="Path_200" data-name="Path 200" d="M302.455,348.565a3.4,3.4,0,0,1-.369-.337,8.2,8.2,0,0,1-.834-1.07,14.5,14.5,0,0,1-1.8-4.081,24.188,24.188,0,0,1-.8-4.38,8.274,8.274,0,0,1-.051-1.846,12.424,12.424,0,0,1,.28,1.815,32.429,32.429,0,0,0,.885,4.323,17.123,17.123,0,0,0,1.681,4.049C302.029,348,302.5,348.52,302.455,348.565Z" transform="translate(-262.293 -196.679)" fill="#eb996e"/>
      <path id="Path_201" data-name="Path 201" d="M310.177,348.714a13.448,13.448,0,0,0,.732-2.763,8.914,8.914,0,0,0-1.732-6.481c-.783-1.1-1.668-2.05-2.413-2.98a14.108,14.108,0,0,1-1.745-2.636,6.959,6.959,0,0,1-.637-2.037,2.593,2.593,0,0,1,0-.777,9.1,9.1,0,0,0,.879,2.706,14.84,14.84,0,0,0,1.776,2.547c.745.9,1.636,1.859,2.438,2.98a9.27,9.27,0,0,1,1.611,3.534,8.984,8.984,0,0,1,.083,3.183,8.365,8.365,0,0,1-.586,2.05c-.1.229-.2.4-.261.516S310.183,348.721,310.177,348.714Z" transform="translate(-264.393 -194.568)" fill="#eb996e"/>
      <path id="Path_202" data-name="Path 202" d="M278.826,303.377a64.684,64.684,0,0,1-3.145-5.73,63.132,63.132,0,0,1-2.852-5.877,64.678,64.678,0,0,1,3.145,5.73A63.875,63.875,0,0,1,278.826,303.377Z" transform="translate(-252.938 -180.3)" fill="#fff"/>
      <path id="Path_203" data-name="Path 203" d="M315,268.14a39.587,39.587,0,0,1,1.942-4.775,41.014,41.014,0,0,1,2.247-4.635,40.877,40.877,0,0,1-1.942,4.775A40.361,40.361,0,0,1,315,268.14Z" transform="translate(-268.261 -168.296)" fill="#fff"/>
      <path id="Path_204" data-name="Path 204" d="M343.936,293.335a29.42,29.42,0,0,1-2.929-3.273,29.739,29.739,0,0,1-2.668-3.483,28.353,28.353,0,0,1,2.922,3.272A29.421,29.421,0,0,1,343.936,293.335Z" transform="translate(-276.741 -178.415)" fill="#fff"/>
      <path id="Path_205" data-name="Path 205" d="M339.74,326.079a25.392,25.392,0,0,1,2.2-3.323,24.314,24.314,0,0,1,2.477-3.126,24.913,24.913,0,0,1-2.2,3.323A23.257,23.257,0,0,1,339.74,326.079Z" transform="translate(-277.249 -190.422)" fill="#fff"/>
      <path id="Path_206" data-name="Path 206" d="M327.555,370.484a6.321,6.321,0,0,1-.745-1.273c-.42-.815-.961-1.955-1.509-3.234s-.987-2.47-1.273-3.33a6.431,6.431,0,0,1-.407-1.426,6.588,6.588,0,0,1,.637,1.343l1.369,3.279c.528,1.216,1,2.318,1.413,3.266A6.605,6.605,0,0,1,327.555,370.484Z" transform="translate(-271.392 -205.533)" fill="#fff"/>
      <path id="Path_207" data-name="Path 207" d="M353.615,355.363a23.65,23.65,0,0,1-3.865-.579,23.011,23.011,0,0,1-3.82-.9,46.138,46.138,0,0,1,7.64,1.483Z" transform="translate(-279.498 -202.866)" fill="#fff"/>
      <path id="Path_208" data-name="Path 208" d="M380,308.533a46.409,46.409,0,0,1,3.68-4.215,47.762,47.762,0,0,1,3.935-4,47.928,47.928,0,0,1-3.686,4.221A48.769,48.769,0,0,1,380,308.533Z" transform="translate(-291.877 -183.407)" fill="#fff"/>
      <path id="Path_209" data-name="Path 209" d="M396.9,364.358c-.07.064-2.126-2.324-4.6-5.316s-4.412-5.475-4.342-5.533,2.127,2.324,4.6,5.316S396.955,364.3,396.9,364.358Z" transform="translate(-294.768 -202.731)" fill="#fff"/>
      <path id="Path_210" data-name="Path 210" d="M260.956,346.12c.045.089-1.834,1.044-3.884,2.617s-3.476,3.126-3.553,3.056a4.534,4.534,0,0,1,.866-1.082,19.587,19.587,0,0,1,2.483-2.235,19.874,19.874,0,0,1,2.814-1.8,4.792,4.792,0,0,1,1.273-.56Z" transform="translate(-245.924 -200.047)" fill="#fff"/>
      <path id="Path_211" data-name="Path 211" d="M271.573,324a13.566,13.566,0,0,1-1.5,2.547,13.369,13.369,0,0,1-1.776,2.368,13.723,13.723,0,0,1,1.5-2.547A13.183,13.183,0,0,1,271.573,324Z" transform="translate(-251.294 -192.01)" fill="#fff"/>
      <path id="Path_212" data-name="Path 212" d="M291.263,342.614a8.411,8.411,0,0,1-1.235-5.444c.1,0,.127,1.273.478,2.757S291.353,342.569,291.263,342.614Z" transform="translate(-259.168 -196.795)" fill="#fff"/>
      <path id="Path_213" data-name="Path 213" d="M291.923,276.791a9.776,9.776,0,0,1-2.451.516,9.429,9.429,0,0,1-2.5.185,9.877,9.877,0,0,1,2.458-.516A9.706,9.706,0,0,1,291.923,276.791Z" transform="translate(-258.077 -174.853)" fill="#fff"/>
      <path id="Path_214" data-name="Path 214" d="M306.147,252.07a19.513,19.513,0,0,1-4.457,2.47,9.746,9.746,0,0,1,2.146-1.382A10.1,10.1,0,0,1,306.147,252.07Z" transform="translate(-263.425 -165.876)" fill="#fff"/>
      <path id="Path_215" data-name="Path 215" d="M345.248,259.036a44.388,44.388,0,0,1-4.648-6.106A44.375,44.375,0,0,1,345.248,259.036Z" transform="translate(-277.562 -166.189)" fill="#fff"/>
      <path id="Path_216" data-name="Path 216" d="M395.472,283.848a15.592,15.592,0,0,1-3.852-6.188c.1-.038.777,1.445,1.846,3.145S395.548,283.784,395.472,283.848Z" transform="translate(-296.098 -175.173)" fill="#fff"/>
      <path id="Path_217" data-name="Path 217" d="M415,293.64a37.106,37.106,0,0,1-2.929,6.45,19.693,19.693,0,0,1,1.318-3.292A18.691,18.691,0,0,1,415,293.64Z" transform="translate(-303.528 -180.98)" fill="#fff"/>
      <path id="Path_218" data-name="Path 218" d="M415.8,263.474a34.216,34.216,0,0,1-3.222-3.6,35.258,35.258,0,0,1-2.961-3.82A70.581,70.581,0,0,1,415.8,263.474Z" transform="translate(-302.638 -167.322)" fill="#fff"/>
      <path id="Path_219" data-name="Path 219" d="M390.111,243.122a14.964,14.964,0,0,1-.286-3.082,14.5,14.5,0,0,1,.045-3.1,14.964,14.964,0,0,1,.286,3.082A14,14,0,0,1,390.111,243.122Z" transform="translate(-295.423 -160.379)" fill="#fff"/>
      <path id="Path_220" data-name="Path 220" d="M409.488,245.34a24.456,24.456,0,0,1-3.935.694,24.109,24.109,0,0,1-3.973.363,24.448,24.448,0,0,1,3.935-.694,24.049,24.049,0,0,1,3.973-.363Z" transform="translate(-299.717 -163.431)" fill="#fff"/>
      <path id="Path_221" data-name="Path 221" d="M448.7,267.482a40.1,40.1,0,0,1-2.368-4.508,39.407,39.407,0,0,1-2.063-4.654,74,74,0,0,1,4.431,9.162Z" transform="translate(-315.227 -168.147)" fill="#fff"/>
      <path id="Path_222" data-name="Path 222" d="M445,292.262a41.387,41.387,0,0,1,1.439-7.182,20.655,20.655,0,0,1-.554,3.623A20.082,20.082,0,0,1,445,292.262Z" transform="translate(-315.493 -177.87)" fill="#fff"/>
      <path id="Path_223" data-name="Path 223" d="M460.253,309.354a40.226,40.226,0,0,1-1.91-4.89,40.74,40.74,0,0,1-1.573-5,78.192,78.192,0,0,1,3.483,9.894Z" transform="translate(-319.769 -183.094)" fill="#fff"/>
      <path id="Path_224" data-name="Path 224" d="M456.444,324.073a8.826,8.826,0,0,1-3.215-1.152,8.531,8.531,0,0,1-2.719-2.063c.064-.076,1.235.891,2.878,1.77S456.476,323.977,456.444,324.073Z" transform="translate(-317.494 -190.867)" fill="#fff"/>
      <path id="Path_225" data-name="Path 225" d="M480.87,348.227a18.18,18.18,0,0,1-1.98-4.457A18.176,18.176,0,0,1,480.87,348.227Z" transform="translate(-327.805 -199.193)" fill="#fff"/>
      <path id="Path_226" data-name="Path 226" d="M350.822,382.209a12.683,12.683,0,0,1-.5-2.821,12.884,12.884,0,0,1-.165-2.859,11.956,11.956,0,0,1,.528,2.846A12.437,12.437,0,0,1,350.822,382.209Z" transform="translate(-281.028 -211.095)" fill="#fff"/>
      <path id="Path_227" data-name="Path 227" d="M419.14,380.624a11.874,11.874,0,0,1,.414-2.757,12.038,12.038,0,0,1,.745-2.687,11.658,11.658,0,0,1-.42,2.757,11.843,11.843,0,0,1-.739,2.687Z" transform="translate(-306.097 -210.605)" fill="#fff"/>
    </g>
  </g>
</svg>
