<svg id="Layer_1" data-name="Layer 1" xmlns="http://www.w3.org/2000/svg" viewBox="0 0 999.3 855.54"><title>pronun</title><g id="speak"><path id="Path_388" data-name="Path 388" d="M754.81,750.56V655.49l95.07,95.07H976.62A63.38,63.38,0,0,1,1040,813.94v31.61a63.38,63.38,0,0,1-63.38,63.38H754.81a63.38,63.38,0,0,1-63.38-63.33V814a63.38,63.38,0,0,1,63.33-63.43Z" transform="translate(-40.7 -53.47)" style="fill:#b3e4e8"/><path id="Path_389" data-name="Path 389" d="M579.39,259.42V433.7l76.05,101.4a15.83,15.83,0,0,1-12.67,25.34H579.39v63.38a110.91,110.91,0,0,1-110.91,110.9H357.58V909H151.63V259.42Z" transform="translate(-40.7 -53.47)" style="fill:#f9d7c0"/><g id="Group_38" data-name="Group 38"><circle id="Ellipse_4" data-name="Ellipse 4" cx="920.89" cy="776.3" r="31.69" style="fill:#f7ba61"/><circle id="Ellipse_5" data-name="Ellipse 5" cx="825.84" cy="776.3" r="31.69" style="fill:#f7ba61"/><circle id="Ellipse_6" data-name="Ellipse 6" cx="730.77" cy="776.3" r="31.69" style="fill:#f7ba61"/></g><path id="Path_390" data-name="Path 390" d="M278.37,116.83H568.3a31.62,31.62,0,0,0,19.79-6.93l70.53-56.43V164.38A126.73,126.73,0,0,1,531.89,291.11H341.77V417.85A174.28,174.28,0,0,1,167.49,592.13H151.65L121,561.58A261.43,261.43,0,0,1,53.4,448.66a344.65,344.65,0,0,1-12.7-94.19c0-131.25,106.4-237.64,237.64-237.64Z" transform="translate(-40.7 -53.47)" style="fill:#8f563b"/><path id="Path_391" data-name="Path 391" d="M322.61,512.94h55.45V402H322.61a51.94,51.94,0,0,0-55.45,47.52v15.83A51.94,51.94,0,0,0,322.61,512.94Z" transform="translate(-40.7 -53.47)" style="fill:#f9d7c0"/><circle id="Ellipse_7" data-name="Ellipse 7" cx="465.41" cy="364.38" r="31.69" style="fill:#8f563b"/></g></svg>