<svg xmlns="http://www.w3.org/2000/svg" viewBox="0 0 811 1042.12"><title>Vocab</title><rect x="739" y="128.17" width="72" height="101" rx="14.82" fill="#62dbfb" style="isolation:isolate"/><rect x="706" y="128.17" width="72" height="101" rx="14.82" fill="#99e6fc" style="isolation:isolate"/><rect x="706" y="294.17" width="72" height="101" rx="14.82" fill="#ffe177" style="isolation:isolate"/><g style="isolation:isolate"><rect x="739" y="294.17" width="72" height="101" rx="14.82" fill="#ffd15b" style="isolation:isolate"/></g><rect x="706" y="294.17" width="72" height="101" rx="14.82" fill="#ffe177" style="isolation:isolate"/><rect x="706" y="128.17" width="72" height="101" rx="14.82" fill="#99e6fc" style="isolation:isolate"/><path d="M825,863.59V996h48a36.45,36.45,0,0,0,23-28V805l-69.76,56A3.27,3.27,0,0,0,825,863.59Z" transform="translate(-142 -25.83)" fill="#f07281" style="isolation:isolate"/><path d="M854,854v85s-4,26-29,26V859Z" transform="translate(-142 -25.83)" fill="#f58a97" style="isolation:isolate"/><path d="M262,26H850s35-5,43,39V843s-12,22-46,20c-28.59-1.68-585,3-585,3Z" transform="translate(-142 -25.83)" fill="#eb5569" style="isolation:isolate"/><path d="M266,26H852V799s6,36-38,38H266Z" transform="translate(-142 -25.83)" fill="#f07281" style="isolation:isolate"/><path d="M266,865H193c-10,5-41.56,9-50,56-.87-15.88,0-39,1-39-.52-.08,11.21-40.9,46-45l76-1" transform="translate(-142 -25.83)" fill="#465a61" style="isolation:isolate"/><path d="M266,26l-69,1s-43,0-55,53V886s8-41,50-50h74Z" transform="translate(-142 -25.83)" fill="#596c76" style="isolation:isolate"/><path d="M266,867V997l-70-2s-33,0-51-41c-.69.38-7.27-34.86,7-58,9.4-14.19,21-24,44-29Z" transform="translate(-142 -25.83)" fill="#8d9ca8" style="isolation:isolate"/><path d="M151,966H266v32l-71-1S172,993,151,966Z" transform="translate(-142 -25.83)" fill="#7a8c98" style="isolation:isolate"/><rect x="124" y="840.17" width="559" height="99" fill="#f2fbff" style="isolation:isolate"/><polygon points="124 939.17 684 939.17 684 969.17 124 972.17 124 939.17" fill="#dff6fd" style="isolation:isolate"/><path d="M331,922H436v139s0,10-13,6l-40-26-40,25s-9,4-12-3Z" transform="translate(-142 -25.83)" fill="#7bacdf" style="isolation:isolate"/><path d="M436,922v139s0,7-13,3l-19-13-1-129Z" transform="translate(-142 -25.83)" fill="#5f99d7" style="isolation:isolate"/><rect x="238" y="102.17" width="403" height="293" rx="31.84" fill="#f2fbff" style="isolation:isolate"/><path d="M509,342.84l-7.27-22.51H439.84l-7.27,23q-4.24,13.47-7.26,18.17t-9.86,4.71q-5.82,0-10.28-5a16.65,16.65,0,0,1-4.46-11.37,29.23,29.23,0,0,1,1-7.59q1-3.92,3.42-10.89L444.1,214.88q1.65-5,4-12a66.25,66.25,0,0,1,5-11.68,22,22,0,0,1,7-7.52,21.28,21.28,0,0,1,21.38,0,22.19,22.19,0,0,1,6.95,7.4,54.88,54.88,0,0,1,4.47,9.72q1.82,5.2,4.62,13.89L537.2,330.37q4.66,13.2,4.67,19.2A17.3,17.3,0,0,1,537.46,361a13.49,13.49,0,0,1-10.64,5.2,12.06,12.06,0,0,1-6.23-1.53,13.4,13.4,0,0,1-4.36-4.16,40.34,40.34,0,0,1-3.78-8.07Q510.43,347,509,342.84Zm-61-49.79H493.4l-22.94-74Z" transform="translate(-142 -25.83)" fill="#7a8c98" style="isolation:isolate"/><path d="M599.79,312.75H567q-7.47,0-11.37-4.1a14.75,14.75,0,0,1-3.89-10.58,15.12,15.12,0,0,1,3.79-10.7q3.79-4.11,11.47-4.1h32.8q7.68,0,11.47,4.1a16.92,16.92,0,0,1,0,21.28Q607.58,312.75,599.79,312.75Z" transform="translate(-142 -25.83)" fill="#7a8c98" style="isolation:isolate"/><path d="M631.24,321.31,709.4,211.09H642.24q-7.05,0-10.64-3.67a13.29,13.29,0,0,1-3.58-9.67,14.28,14.28,0,0,1,3.58-10.09q3.58-3.85,10.64-3.85h86.57q16.82,0,16.81,18.47,0,8.81-2.8,14.07t-11.31,17L658.43,335.87H739q7.15,0,10.69,3.49t3.53,9.72q0,6.5-3.53,10.28T739,363.15H640.17q-10.08,0-15.16-5.32t-5.08-14.25a18,18,0,0,1,.83-5.63,21.62,21.62,0,0,1,2.23-4.83q1.39-2.26,3.89-5.75C628.54,325,630,323,631.24,321.31Z" transform="translate(-142 -25.83)" fill="#7a8c98" style="isolation:isolate"/><rect x="237" y="661.17" width="405" height="57" rx="28.5" fill="#f2fbff" style="isolation:isolate"/></svg>