<svg xmlns="http://www.w3.org/2000/svg" viewBox="0 0 811 1042.12"><title>vocab2</title><rect x="739" y="128.17" width="72" height="101" rx="14.82" fill="#62dbfb" style="isolation:isolate"/><rect x="706" y="128.17" width="72" height="101" rx="14.82" fill="#99e6fc" style="isolation:isolate"/><rect x="706" y="294.17" width="72" height="101" rx="14.82" fill="#ffe177" style="isolation:isolate"/><g style="isolation:isolate"><rect x="739" y="294.17" width="72" height="101" rx="14.82" fill="#ffd15b" style="isolation:isolate"/></g><rect x="706" y="294.17" width="72" height="101" rx="14.82" fill="#ffe177" style="isolation:isolate"/><rect x="706" y="128.17" width="72" height="101" rx="14.82" fill="#99e6fc" style="isolation:isolate"/><path d="M825,863.59V996h48a36.45,36.45,0,0,0,23-28V805l-69.76,56A3.27,3.27,0,0,0,825,863.59Z" transform="translate(-142 -25.83)" fill="#f07281" style="isolation:isolate"/><path d="M854,854v85s-4,26-29,26V859Z" transform="translate(-142 -25.83)" fill="#f58a97" style="isolation:isolate"/><path d="M262,26H850s35-5,43,39V843s-12,22-46,20c-28.59-1.68-585,3-585,3Z" transform="translate(-142 -25.83)" fill="#eb5569" style="isolation:isolate"/><path d="M266,26H852V799s6,36-38,38H266Z" transform="translate(-142 -25.83)" fill="#f07281" style="isolation:isolate"/><path d="M266,865H193c-10,5-41.56,9-50,56-.87-15.88,0-39,1-39-.52-.08,11.21-40.9,46-45l76-1" transform="translate(-142 -25.83)" fill="#465a61" style="isolation:isolate"/><path d="M266,26l-69,1s-43,0-55,53V886s8-41,50-50h74Z" transform="translate(-142 -25.83)" fill="#596c76" style="isolation:isolate"/><path d="M266,867V997l-70-2s-33,0-51-41c-.69.38-7.27-34.86,7-58,9.4-14.19,21-24,44-29Z" transform="translate(-142 -25.83)" fill="#8d9ca8" style="isolation:isolate"/><path d="M151,966H266v32l-71-1S172,993,151,966Z" transform="translate(-142 -25.83)" fill="#7a8c98" style="isolation:isolate"/><rect x="124" y="840.17" width="559" height="99" fill="#f2fbff" style="isolation:isolate"/><polygon points="124 939.17 684 939.17 684 969.17 124 972.17 124 939.17" fill="#dff6fd" style="isolation:isolate"/><path d="M331,922H436v139s0,10-13,6l-40-26-40,25s-9,4-12-3Z" transform="translate(-142 -25.83)" fill="#7bacdf" style="isolation:isolate"/><path d="M436,922v139s0,7-13,3l-19-13-1-129Z" transform="translate(-142 -25.83)" fill="#5f99d7" style="isolation:isolate"/><rect x="238" y="102.17" width="403" height="293" rx="31.84" fill="#f2fbff" style="isolation:isolate"/><text transform="translate(253 337.32) scale(0.85 1)" font-size="250.54" fill="#7a8c98" font-family="ArialRoundedMTBold, Arial Rounded MT Bold">A-Z</text><text x="-142" y="-25.83"/><rect x="237" y="661.17" width="405" height="57" rx="28.5" fill="#f2fbff" style="isolation:isolate"/></svg>